<?xml version="1.0" encoding="utf-8"?>
<!-- Generator: Adobe Illustrator 16.0.4, SVG Export Plug-In . SVG Version: 6.00 Build 0)  -->
<!DOCTYPE svg PUBLIC "-//W3C//DTD SVG 1.1//EN" "http://www.w3.org/Graphics/SVG/1.1/DTD/svg11.dtd">
<svg version="1.1" id="Layer_1" xmlns="http://www.w3.org/2000/svg" xmlns:xlink="http://www.w3.org/1999/xlink" x="0px" y="0px"
	 width="26.044px" height="23.116px" viewBox="9.634 8.428 26.044 23.116" enable-background="new 9.634 8.428 26.044 23.116"
	 xml:space="preserve">
<path fill="#FFFFFF" d="M20.646,28.955l-0.015,0.027c-0.5,0.875-0.754,1.319-1.105,1.653c-0.383,0.365-0.842,0.632-1.347,0.78
	c-0.461,0.127-0.976,0.127-2.008,0.127h-4.379c-0.92,0-1.376,0-1.652-0.179c-0.3-0.195-0.483-0.515-0.505-0.871
	c-0.017-0.326,0.21-0.728,0.666-1.524L21.114,9.913c0.461-0.811,0.693-1.215,0.986-1.364c0.314-0.161,0.693-0.161,1.01,0
	c0.293,0.149,0.527,0.554,0.986,1.364l2.223,3.879l0.013,0.02c0.498,0.869,0.749,1.308,0.858,1.771c0.121,0.505,0.121,1.037,0,1.542
	c-0.109,0.466-0.36,0.91-0.866,1.791l-5.679,10.04L20.646,28.955L20.646,28.955z M35.174,31.361
	c-0.277,0.183-0.74,0.183-1.668,0.183H27.23c-0.926,0-1.392,0-1.664-0.179c-0.301-0.195-0.482-0.521-0.506-0.875
	c-0.017-0.324,0.213-0.721,0.672-1.514l0.01-0.021l3.133-5.377c0.461-0.792,0.693-1.186,0.98-1.336c0.316-0.161,0.688-0.161,1.002,0
	c0.287,0.146,0.511,0.522,0.951,1.271l0.037,0.062l3.143,5.377c0.016,0.025,0.031,0.051,0.047,0.078
	c0.438,0.751,0.658,1.135,0.642,1.451c-0.017,0.354-0.204,0.681-0.505,0.875L35.174,31.361z"/>
</svg>
