<?xml version="1.0" encoding="utf-8"?>
<!-- Generator: Adobe Illustrator 16.0.4, SVG Export Plug-In . SVG Version: 6.00 Build 0)  -->
<!DOCTYPE svg PUBLIC "-//W3C//DTD SVG 1.1//EN" "http://www.w3.org/Graphics/SVG/1.1/DTD/svg11.dtd">
<svg version="1.1" id="Layer_1" xmlns="http://www.w3.org/2000/svg" xmlns:xlink="http://www.w3.org/1999/xlink" x="0px" y="0px"
	 width="156px" height="21px" viewBox="0 0 156 21" enable-background="new 0 0 156 21" xml:space="preserve">
<g>
	<defs>
		<rect id="SVGID_1_" width="156" height="21"/>
	</defs>
	<clipPath id="SVGID_2_">
		<use xlink:href="#SVGID_1_"  overflow="visible"/>
	</clipPath>
	<g clip-path="url(#SVGID_2_)">
		<path fill="#FFFFFF" d="M1.471,20.659l1.505-1.586h6.217c1.132,0.033,2.232-0.368,3.062-1.116c0.404-0.35,0.726-0.78,0.942-1.263
			c0.216-0.481,0.322-1.004,0.311-1.529c0.008-0.525-0.1-1.046-0.316-1.527c-0.216-0.481-0.535-0.913-0.937-1.265
			c-0.831-0.748-1.93-1.149-3.062-1.117H6.062c-0.795,0.006-1.585-0.134-2.327-0.412c-0.729-0.268-1.398-0.67-1.971-1.184
			C1.205,9.164,0.76,8.559,0.46,7.884C0.156,7.223-0.001,6.506-0.001,5.782S0.156,4.341,0.46,3.68
			c0.306-0.672,0.75-1.276,1.304-1.776c0.573-0.52,1.245-0.927,1.977-1.201c0.732-0.28,1.512-0.424,2.298-0.424h7.045l-1.448,1.585
			H6.062C5.497,1.86,4.936,1.958,4.407,2.155C3.885,2.343,3.407,2.629,3,2.998C2.606,3.356,2.293,3.789,2.079,4.269
			C1.864,4.749,1.754,5.267,1.754,5.79s0.11,1.041,0.325,1.521S2.606,8.225,3,8.582c0.407,0.369,0.886,0.656,1.408,0.843
			c0.528,0.197,1.089,0.296,1.655,0.29h3.132c0.797,0,1.586,0.146,2.327,0.431c0.729,0.274,1.399,0.682,1.971,1.2
			c0.554,0.501,1,1.105,1.31,1.775c0.299,0.66,0.454,1.373,0.454,2.094c-0.011,0.723-0.173,1.436-0.477,2.094
			c-0.308,0.676-0.753,1.283-1.31,1.787c-0.576,0.508-1.247,0.904-1.977,1.167c-0.746,0.272-1.536,0.413-2.333,0.413L1.471,20.659z"
			/>
		<path fill="#FFFFFF" d="M20.979,0.279h-1.632v20.396h1.632V0.279z"/>
		<path fill="#FFFFFF" d="M35.896,21c-1.421,0.002-2.828-0.273-4.137-0.81c-1.312-0.533-2.502-1.311-3.505-2.29
			c-1.509-1.47-2.537-3.342-2.954-5.379c-0.416-2.037-0.202-4.148,0.615-6.067c0.536-1.259,1.33-2.399,2.333-3.35
			c0.996-0.995,2.191-1.782,3.511-2.312c2.649-1.054,5.619-1.054,8.269,0c1.128,0.456,2.166,1.098,3.068,1.898l-1.149,1.117
			c-0.762-0.65-1.63-1.173-2.568-1.547c-1.12-0.446-2.318-0.675-3.528-0.676c-1.813-0.003-3.587,0.516-5.096,1.493
			s-2.685,2.368-3.379,3.996c-0.919,2.202-0.919,4.666,0,6.868c0.455,1.076,1.134,2.05,1.994,2.858
			c1.582,1.544,3.691,2.471,5.929,2.604c2.238,0.134,4.448-0.534,6.213-1.878l0.218-0.162V9.682h1.609v8.375
			c-0.969,0.903-2.101,1.625-3.338,2.128C38.7,20.717,37.305,20.993,35.896,21z"/>
		<path fill="#FFFFFF" d="M66.861,20.676V2.44l-8.889,9.861l-8.86-9.866V18.27l-1.632,1.607V0.279h1.839l8.653,9.637l8.683-9.637
			h1.815v20.396H66.861z"/>
		<path fill="#FFFFFF" d="M97.684,20.659V0.279h6.809c1.383-0.003,2.753,0.262,4.029,0.778s2.435,1.275,3.406,2.231
			c0.984,0.94,1.766,2.062,2.299,3.3c1.051,2.505,1.051,5.312,0,7.817c-0.533,1.236-1.314,2.359-2.299,3.299
			c-0.982,0.938-2.142,1.686-3.412,2.2c-1.274,0.521-2.642,0.786-4.023,0.782L97.684,20.659z M99.32,19.073h5.172
			c1.164,0.005,2.316-0.216,3.392-0.647c1.075-0.433,2.052-1.068,2.872-1.871c0.818-0.802,1.469-1.75,1.919-2.791
			c0.459-1.039,0.696-2.158,0.695-3.289c0.001-1.135-0.229-2.258-0.679-3.305c-0.922-2.106-2.647-3.783-4.814-4.679
			c-1.077-0.435-2.23-0.658-3.396-0.659H99.31L99.32,19.073z"/>
		<path fill="#FFFFFF" d="M153.96,20.676l-6.97-8.889l-6.936,8.889h-2.039l7.969-10.168l-7.969-10.229h2.039l6.936,8.889l6.97-8.889
			H156l-7.971,10.229L156,20.676H153.96z"/>
		<path fill="#51EDFF" d="M134.32,5.143l0.855-4.863h-14.221l-0.346,1.904l7.701,8.426L117.6,18.777l-0.346,1.898h14.217
			l0.993-5.287l-3.712,3.701h-9.561l11.164-8.48c-2.713-2.915-5.42-5.832-8.125-8.75h10.504L134.32,5.143z"/>
		<path fill="#FFFFFF" d="M91.363,4.467v14.518H77.095l7.235-7.371L91.363,4.467z M93.086,0.285L73.067,20.659h20.019V0.268V0.285z"
			/>
	</g>
</g>
</svg>
